# Blender 3.6.2
# www.blender.org
mtllib d12.mtl
o Solid.001
v 0.577350 0.577350 0.577350
v 0.577350 -0.577350 0.577350
v 0.356822 0.000000 0.934172
v 0.934172 0.356822 0.000000
v 0.934172 -0.356822 0.000000
vn 0.8507 -0.0000 0.5257
s 0
f 1//1 3//1 2//1 5//1 4//1
o Solid.002
v 0.577350 0.577350 -0.577350
v 0.577350 0.577350 0.577350
v 0.934172 0.356822 0.000000
v 0.000000 0.934172 -0.356822
v 0.000000 0.934172 0.356822
vn 0.5257 0.8507 -0.0000
s 0
f 9//2 10//2 7//2 8//2 6//2
o Solid.003
v 0.356822 0.000000 -0.934172
v 0.577350 -0.577350 -0.577350
v 0.577350 0.577350 -0.577350
v 0.934172 0.356822 0.000000
v 0.934172 -0.356822 0.000000
vn 0.8507 -0.0000 -0.5257
s 0
f 14//3 15//3 12//3 11//3 13//3
o Solid.004
v 0.934172 -0.356822 0.000000
v 0.577350 -0.577350 0.577350
v 0.577350 -0.577350 -0.577350
v 0.000000 -0.934172 -0.356822
v 0.000000 -0.934172 0.356822
vn 0.5257 -0.8507 -0.0000
s 0
f 20//4 19//4 18//4 16//4 17//4
o Solid.005
v 0.577350 -0.577350 0.577350
v -0.577350 -0.577350 0.577350
v 0.356822 0.000000 0.934172
v -0.356822 0.000000 0.934172
v 0.000000 -0.934172 0.356822
vn -0.0000 -0.5257 0.8507
s 0
f 25//5 21//5 23//5 24//5 22//5
o Solid.006
v 0.577350 0.577350 0.577350
v -0.577350 0.577350 0.577350
v 0.356822 0.000000 0.934172
v -0.356822 0.000000 0.934172
v 0.000000 0.934172 0.356822
vn -0.0000 0.5257 0.8507
s 0
f 29//6 28//6 26//6 30//6 27//6
o Solid.007
v -0.577350 0.577350 0.577350
v -0.934172 0.356822 0.000000
v 0.000000 0.934172 0.356822
v -0.577350 0.577350 -0.577350
v 0.000000 0.934172 -0.356822
vn -0.5257 0.8507 -0.0000
s 0
f 35//7 34//7 32//7 31//7 33//7
o Solid.008
v -0.577350 0.577350 0.577350
v -0.577350 -0.577350 0.577350
v -0.356822 0.000000 0.934172
v -0.934172 0.356822 0.000000
v -0.934172 -0.356822 0.000000
vn -0.8507 -0.0000 0.5257
s 0
f 38//8 36//8 39//8 40//8 37//8
o Solid.009
v -0.934172 -0.356822 0.000000
v -0.934172 0.356822 0.000000
v -0.577350 -0.577350 -0.577350
v -0.577350 0.577350 -0.577350
v -0.356822 0.000000 -0.934172
vn -0.8507 -0.0000 -0.5257
s 0
f 43//9 41//9 42//9 44//9 45//9
o Solid.010
v 0.577350 0.577350 -0.577350
v -0.577350 0.577350 -0.577350
v 0.356822 0.000000 -0.934172
v -0.356822 0.000000 -0.934172
v 0.000000 0.934172 -0.356822
vn -0.0000 0.5257 -0.8507
s 0
f 48//10 49//10 47//10 50//10 46//10
o Solid.011
v -0.577350 -0.577350 -0.577350
v 0.577350 -0.577350 -0.577350
v 0.356822 0.000000 -0.934172
v -0.356822 0.000000 -0.934172
v 0.000000 -0.934172 -0.356822
vn -0.0000 -0.5257 -0.8507
s 0
f 52//11 55//11 51//11 54//11 53//11
o Solid.012
v -0.577350 -0.577350 0.577350
v -0.577350 -0.577350 -0.577350
v -0.934172 -0.356822 0.000000
v 0.000000 -0.934172 -0.356822
v 0.000000 -0.934172 0.356822
vn -0.5257 -0.8507 -0.0000
s 0
f 58//12 57//12 59//12 60//12 56//12
