0
SECTION
2
HEADER
9
$INSUNITS
70
4
9
$ACADVER
1
AC1014
9
$HANDSEED
5
FFFF
0
ENDSEC
0
SECTION
2
TABLES
0
TABLE
2
VPORT
5
8
100
AcDbSymbolTable
0
ENDTAB
0
TABLE
2
LTYPE
5
5
100
AcDbSymbolTable
0
LTYPE
5
14
100
AcDbSymbolTableRecord
100
AcDbLinetypeTableRecord
2
BYBLOCK
70
0
0
LTYPE
5
15
100
AcDbSymbolTableRecord
100
AcDbLinetypeTableRecord
2
BYLAYER
70
0
0
ENDTAB
0
TABLE
2
LAYER
5
2
100
AcDbSymbolTable
70
2
0
LAYER
5
50
100
AcDbSymbolTableRecord
100
AcDbLayerTableRecord
2
0
70
0
6
CONTINUOUS
0
ENDTAB
0
TABLE
2
STYLE
5
3
100
AcDbSymbolTable
70
1
0
STYLE
5
11
100
AcDbSymbolTableRecord
100
AcDbTextStyleTableRecord
2
STANDARD
70
0
0
ENDTAB
0
TABLE
2
VIEW
5
6
100
AcDbSymbolTable
70
0
0
ENDTAB
0
TABLE
2
UCS
5
7
100
AcDbSymbolTable
70
0
0
ENDTAB
0
TABLE
2
APPID
5
9
100
AcDbSymbolTable
70
2
0
APPID
5
12
100
AcDbSymbolTableRecord
100
AcDbRegAppTableRecord
2
ACAD
70
0
0
ENDTAB
0
TABLE
2
DIMSTYLE
5
A
100
AcDbSymbolTable
70
1
0
ENDTAB
0
TABLE
2
BLOCK_RECORD
5
1
100
AcDbSymbolTable
70
1
0
BLOCK_RECORD
5
1F
100
AcDbSymbolTableRecord
100
AcDbBlockTableRecord
2
*MODEL_SPACE
0
BLOCK_RECORD
5
1B
100
AcDbSymbolTableRecord
100
AcDbBlockTableRecord
2
*PAPER_SPACE
0
ENDTAB
0
ENDSEC
0
SECTION
2
BLOCKS
0
BLOCK
5
20
100
AcDbEntity
100
AcDbBlockBegin
2
*MODEL_SPACE
0
ENDBLK
5
21
100
AcDbEntity
100
AcDbBlockEnd
0
BLOCK
5
1C
100
AcDbEntity
100
AcDbBlockBegin
2
*PAPER_SPACE
0
ENDBLK
5
1D
100
AcDbEntity
100
AcDbBlockEnd
0
ENDSEC
0
SECTION
2
ENTITIES
0
LWPOLYLINE
5
100
100
AcDbEntity
8
0
100
AcDbPolyline
90
51
70
1
43
0.0
10
10.126142052615384
20
13.93743884534266
10
11.579227108626107
20
15.937438845342662
10
1.9999999999999996
20
15.937438845342658
10
2.0000000000000009
20
21.937438845342669
10
15.938482276658274
20
21.937438845342658
10
25.789006052720872
20
-8.3793560127986702
10
4.4408920985006262e-15
20
-27.116165665088026
10
-25.78900605272084
20
-8.3793560127986666
10
-15.938482276658236
20
21.937438845342605
10
-17.391567332668966
20
23.937438845342616
10
-28.14014706189073
20
-9.1432880352988732
10
0
20
-29.588301620087599
10
28.140147061890744
20
-9.1432880352988768
10
17.391567332668977
20
23.93743884534263
10
1.9999999999999996
20
23.93743884534263
10
2.0000000000000009
20
31.937438845342626
42
0.015636464628997891
10
1.8596235662471372e-14
20
32
10
-23.249360896171574
20
32.000000000000007
10
-37.618256146718281
20
-12.222912360003399
10
0
20
-39.554175279993274
10
37.618256146718267
20
-12.222912360003392
10
23.24936089617157
20
31.999999999999996
10
21.796275840160845
20
29.999999999999993
10
35.267115137548402
20
-11.458980337503188
10
0
20
-37.082039324993723
10
-35.267115137548394
20
-11.458980337503188
10
-21.796275840160824
20
29.999999999999972
10
0
20
29.999999999999972
10
0
20
15.937438845342658
10
-11.5792271086261
20
15.937438845342655
10
-18.735583025211213
20
-6.0875599452980449
10
0
20
-19.699757800089333
10
18.735583025211234
20
-6.0875599452980467
10
16.384442016041348
20
-5.3236279227978356
10
9.810254996770567
20
-10.100054379358852
10
6.2835434830157286
20
-5.2459524131091628
10
9.3310189885316692
20
-3.0318318552971988
10
5.7668868845832417
20
7.9374388453426983
10
-5.7668868845832417
20
7.9374388453426983
10
-9.3310189885316763
20
-3.0318318552972032
10
-6.9798779793617811
20
-2.267899832796989
10
-4.313801828572517
20
5.9374388453426956
10
4.313801828572517
20
5.9374388453426965
10
6.9798779793617749
20
-2.2678998327969859
10
0
20
-7.3390780250914345
10
0
20
-9.811213980091015
10
4.6655094942658337
20
-6.4215229176941078
10
8.1922210080206721
20
-11.275624883943799
10
0
20
-17.22762184508975
10
-16.384442016041319
20
-5.3236279227978294
10
-10.126142052615387
20
13.937438845342658
0
ENDSEC
0
SECTION
2
OBJECTS
0
DICTIONARY
5
C
100
AcDbDictionary
3
ACAD_GROUP
350
D
3
ACAD_MLINESTYLE
350
17
0
DICTIONARY
5
D
100
AcDbDictionary
0
DICTIONARY
5
1A
330
C
100
AcDbDictionary
0
DICTIONARY
5
17
100
AcDbDictionary
0
ENDSEC
0
EOF
